<svg width="1920" height="746" viewBox="0 0 1920 746" fill="none" xmlns="http://www.w3.org/2000/svg">
<g clip-path="url(#clip0_218_38)">
<path d="M2027.53 525.904C1815.59 520.018 1664.4 538.45 1564.88 556.636C1464.25 575.028 1391.1 597.848 1259.98 603.596C1115.34 610.058 1022.15 595.939 985.373 589.108C934.39 579.628 937.866 575.892 854.746 556.396C695.076 518.943 663.571 528.321 592.426 505.96C474.462 468.893 513.321 428.121 391.226 371.161C302.809 329.899 154.296 291.515 16.8085 301.045C-112.663 310.023 -130.311 354.411 -265.634 351.274C-321.22 349.987 -366.876 340.835 -458.155 322.534C-575.146 299.159 -653.106 275.043 -684.393 266.293C-777.075 240.344 -928.017 217.436 -1178.51 237.884" stroke="#CDF564" stroke-opacity="0.2" stroke-width="3.5" stroke-miterlimit="10"/>
<path d="M2030 511.317C1825.04 504.673 1670.37 520.095 1561.92 538.567C1473.8 553.864 1406.08 572.686 1313.87 583.022C1293.7 585.272 1272.48 587.329 1249.68 588.788C1105.99 597.962 1012.84 588.148 974.005 583.43C921.922 577.119 922.132 574.155 840.662 555.162C783.243 541.793 742.255 533.576 710.463 527.836C656.418 518.088 629.183 515.752 587.01 501.391C571.272 496.068 556.588 489.875 543.248 482.935C481.548 450.852 486.741 416.106 383.77 371.568C294.14 332.798 146.391 297.798 11.236 307.36C0.5279 308.121 -10.0448 309.169 -20.4414 310.499C-125.359 323.95 -151.188 358.886 -270.136 356.21C-282.671 355.937 -295.241 355.229 -307.762 354.089C-349.845 350.329 -393.016 341.806 -461.373 328.113C-574.612 305.34 -651.371 281.66 -685.868 271.995C-711.139 264.966 -737.29 258.998 -764.048 254.156C-856.627 237.269 -988.448 226.833 -1175.86 239.829" stroke="#CDF564" stroke-opacity="0.2" stroke-width="3.5" stroke-miterlimit="10"/>
<path d="M2032.55 495.431C1834.62 488.064 1676.32 500.25 1559.04 519.333C1465.9 534.474 1395.04 554.294 1304.44 565.599C1283.76 568.197 1262.34 570.792 1239.41 572.694C1096.66 584.596 1003.58 580.644 962.633 576.463C909.87 571.041 906.33 571.107 826.639 552.642C770.844 539.691 730.072 530.719 698.948 524.24C646.508 513.367 621.153 510.127 581.785 495.53C566.788 489.921 552.767 483.592 539.934 476.64C480.384 444.894 479.684 411.839 376.348 370.622C285.501 334.36 138.517 302.746 5.69498 312.339C-5.55453 313.214 -15.9652 314.148 -25.7542 315.461C-133.957 329.063 -160.053 362.273 -274.631 359.707C-287.068 359.456 -299.543 358.777 -311.972 357.673C-354.773 353.979 -397.891 345.611 -464.575 332.12C-574.1 310.012 -649.59 286.724 -687.341 276.309C-712.41 269.341 -738.315 263.382 -764.808 258.487C-856.533 241.427 -987.659 229.885 -1173.05 240.414" stroke="#CDF564" stroke-opacity="0.2" stroke-width="3.5" stroke-miterlimit="10"/>
<path d="M2035.15 478.46C1844.25 470.304 1682.4 479.476 1556.21 498.93C1458.18 514.058 1384.07 534.785 1295.15 547.08C1273.93 550.025 1252.28 553.139 1229.28 555.505C1087.48 570.101 994.866 568.694 951.401 568.418C897.629 568.062 890.669 566.982 812.724 549.042C758.486 536.536 717.931 526.793 687.315 519.563C636.509 507.585 612.972 503.403 576.409 488.587C562.271 482.692 548.997 476.235 536.728 469.282C479.325 437.889 472.538 406.528 369.093 368.667C276.902 334.903 130.813 306.667 0.321914 316.309C-10.8308 317.19 -21.1769 318.129 -30.8978 319.396C-142.328 333.238 -168.783 364.648 -278.938 362.363C-291.288 362.134 -303.677 361.483 -316.026 360.414C-359.546 356.803 -402.736 348.546 -467.658 335.348C-573.406 313.927 -647.692 291.042 -688.656 279.747C-713.575 272.868 -739.264 266.92 -765.509 261.952C-856.377 244.718 -986.808 232.054 -1170.14 240.135" stroke="#CDF564" stroke-opacity="0.2" stroke-width="3.5" stroke-miterlimit="10"/>
<path d="M2037.79 461.459C1853.88 452.544 1688.55 458.674 1553.41 478.513C1450.45 493.643 1373.13 515.297 1285.83 528.544C1264.1 531.837 1242.25 535.489 1219.12 538.298C1078.26 555.539 986.203 558.271 940.14 560.321C885.717 562.748 875.109 562.814 798.781 545.391C745.975 533.271 705.827 522.82 675.778 514.895C626.607 501.828 604.922 496.672 571.13 481.652C557.875 475.485 545.343 468.903 533.617 461.949C478.327 430.94 465.454 401.255 361.876 366.649C268.338 335.4 123.178 310.527 -5.01297 320.198C-16.0366 321.089 -26.3182 322.032 -36.0045 323.269C-150.693 337.331 -177.43 366.78 -283.202 364.872C-295.466 364.641 -307.768 364.018 -320.037 363.008C-364.21 359.468 -407.281 351.354 -470.698 338.43C-572.73 317.658 -645.779 295.162 -689.959 283.036C-714.702 276.219 -740.167 270.277 -766.164 265.253C-856.209 247.827 -985.946 234.074 -1167.25 239.671" stroke="#CDF564" stroke-opacity="0.2" stroke-width="3.5" stroke-miterlimit="10"/>
<path d="M2039.93 450.531C1863.01 440.858 1694.17 443.926 1550.12 464.154C1442.26 479.303 1361.69 501.932 1276.02 516.064C1253.81 519.724 1231.69 523.844 1208.46 527.148C1068.62 547.038 977.017 553.819 928.478 558.321C873.379 563.411 858.919 564.744 784.435 547.837C743.304 538.477 703.028 527.915 663.816 516.204C616.18 502.058 596.415 495.901 565.485 480.766C551.98 474.132 541.373 467.337 529.85 460.644C476.668 430.086 457.686 401.959 354.064 370.697C259.083 341.973 114.916 320.451 -10.9419 330.154C-21.8688 331.052 -32.0858 331.999 -41.7052 333.207C-159.681 347.438 -186.72 375.208 -288.092 373.446C-300.26 373.223 -312.464 372.624 -324.64 371.653C-369.529 368.145 -412.548 360.219 -474.239 347.635C-572.527 327.564 -644.369 305.422 -691.732 292.467C-716.32 285.715 -741.584 279.783 -767.356 274.709C-856.544 257.092 -985.552 242.22 -1164.84 245.366" stroke="#CDF564" stroke-opacity="0.2" stroke-width="3.5" stroke-miterlimit="10"/>
<path d="M2041.97 442.777C1872.07 432.381 1699.72 432.405 1546.73 452.984C1433.97 468.154 1350.22 491.795 1266.11 506.691C1243.39 510.733 1221.07 515.341 1197.72 519.104C1058.73 541.582 967.553 552.394 916.567 559.383C860.896 567.06 842.61 569.745 769.84 553.361C729.066 544.18 689.528 533.275 651.657 520.763C605.684 505.581 587.712 498.379 559.588 482.992C547.1 476.196 537.381 469.213 525.96 462.46C474.863 432.218 449.717 405.962 346.13 377.866C249.637 351.696 106.5 333.494 -17.0274 343.246C-27.8252 344.152 -37.9456 345.107 -47.5626 346.282C-168.822 360.63 -196.257 386.665 -293.097 385.024C-305.178 384.824 -317.297 384.254 -329.392 383.316C-374.935 379.879 -417.965 372.103 -477.952 359.74C-572.492 340.32 -643.098 318.584 -693.708 304.762C-718.126 298.086 -743.166 292.166 -768.685 287.034C-857.049 269.224 -985.362 253.23 -1162.63 253.942" stroke="#CDF564" stroke-opacity="0.2" stroke-width="3.5" stroke-miterlimit="10"/>
<path d="M2043.92 434.898C1881.06 423.713 1705.25 420.763 1543.25 441.69C1425.63 456.899 1338.72 481.588 1256.17 497.348C1232.93 501.806 1210.36 506.897 1186.91 511.089C1048.84 536.126 958.028 550.897 904.685 560.497C848.09 570.669 826.299 574.778 755.275 558.92C714.794 549.826 675.953 538.488 639.479 525.12C595.23 508.938 579.024 500.623 553.666 485.098C542.293 478.131 533.395 471.004 522.111 464.144C473.059 434.332 441.661 409.808 338.171 384.915C240.133 361.331 98.1218 346.438 -22.9747 356.212C-33.6758 357.126 -43.7316 358.085 -53.2829 359.248C-177.834 373.831 -205.435 398.097 -298.014 396.725C-309.999 396.532 -322.02 395.991 -334.023 395.104C-380.29 391.817 -423.26 384.111 -481.547 372.004C-572.375 353.283 -641.71 331.905 -695.569 317.266C-719.82 310.644 -744.648 304.722 -769.93 299.531C-857.441 281.598 -985.058 264.481 -1160.27 262.696" stroke="#CDF564" stroke-opacity="0.2" stroke-width="3.5" stroke-miterlimit="10"/>
<path d="M2045.91 426.988C1890.04 415.044 1710.75 409.085 1539.81 430.364C1417.28 445.61 1327.22 471.364 1246.21 487.885C1222.52 492.713 1199.66 498.235 1176.13 502.991C1038.95 530.585 948.445 549.311 892.775 561.524C835.323 574.179 809.991 579.744 740.681 564.41C700.507 555.409 662.355 543.688 627.294 529.575C584.513 512.36 570.362 502.952 547.771 487.288C537.481 480.13 529.337 472.891 518.223 465.925C471.217 436.526 433.628 413.788 330.237 392.049C230.586 371.095 89.7386 359.448 -29.1234 369.264C-39.7277 370.184 -49.7187 371.148 -59.202 372.265C-187.069 386.964 -214.906 409.54 -303.123 408.377C-315.022 408.193 -326.957 407.68 -338.879 406.841C-385.834 403.656 -428.908 396.044 -485.432 384.229C-572.481 366.178 -640.61 345.17 -697.685 329.701C-721.758 323.125 -746.363 317.192 -771.395 311.928C-858.078 293.753 -985.004 275.58 -1158.19 271.327" stroke="#CDF564" stroke-opacity="0.2" stroke-width="3.5" stroke-miterlimit="10"/>
<path d="M2047.9 419.114C1899.02 406.461 1716.18 397.506 1536.29 419.12C1408.74 434.411 1315.71 461.259 1236.18 478.505C1212 483.75 1188.88 489.706 1165.26 494.923C1029 525.027 938.768 547.688 880.798 562.6C822.366 577.646 793.585 584.739 726.021 569.931C686.128 560.971 648.659 548.824 615.081 533.965C573.894 515.775 561.674 505.199 541.848 489.414C532.642 482.065 525.348 474.735 514.211 467.634C469.185 438.66 425.333 417.803 322.115 399.123C220.847 380.832 81.1986 372.4 -35.3633 382.246C-45.8384 383.175 -55.7651 384.144 -65.2079 385.146C-196.36 399.98 -224.466 420.863 -308.253 419.881C-320.085 419.736 -331.959 419.25 -343.819 418.426C-391.454 415.209 -434.384 407.858 -489.375 396.369C-572.678 378.986 -639.568 358.351 -699.892 342.048C-721.685 336.148 -745.87 330.129 -772.99 324.353C-858.819 306.004 -985.049 286.709 -1156.18 280.008" stroke="#CDF564" stroke-opacity="0.2" stroke-width="3.5" stroke-miterlimit="10"/>
<path d="M2049.87 411.47C1908.14 398.054 1721.79 386.087 1532.9 408.016C1400.61 423.372 1304.36 451.33 1226.26 469.28C1201.63 474.945 1178.22 481.316 1154.5 487.028C1019.04 519.632 929.015 546.208 868.973 563.818C809.553 581.354 777.363 589.879 711.513 575.594C671.855 566.667 635.023 554.105 602.919 538.556C563.262 519.37 553.233 507.628 535.975 491.741C527.853 484.201 521.345 476.759 510.475 469.56C467.427 441.045 417.352 421.972 314.333 406.419C211.314 390.866 72.9656 385.589 -41.2637 395.466C-51.6421 396.403 -61.5043 397.376 -70.8825 398.383C-205.351 413.35 -233.726 432.54 -313.214 431.746C-324.928 431.621 -336.683 431.16 -348.429 430.366C-396.848 427.244 -439.657 420.018 -492.816 408.76C-572.406 392.06 -638.025 371.782 -701.598 354.663C-723.297 348.803 -747.29 342.814 -774.082 336.978C-859.054 318.455 -984.59 298.055 -1153.69 288.87" stroke="#CDF564" stroke-opacity="0.2" stroke-width="3.5" stroke-miterlimit="10"/>
<path d="M2051.8 403.925C1916.97 389.71 1727.29 374.812 1529.4 397.039C1392.11 412.391 1292.95 441.565 1216.3 460.154C1191.19 466.253 1167.5 473.022 1143.61 479.225C1009.01 514.35 919.161 544.788 857.072 565.198C796.548 585.033 760.902 595.187 697.026 581.427C654.612 572.288 616.596 556.917 590.81 543.319C552.648 523.168 544.522 510.206 530.123 494.237C523.149 486.511 517.395 478.955 506.695 471.634C465.591 443.609 409.384 426.41 306.506 413.896C201.927 401.128 64.6886 398.943 -47.2082 408.852C-57.4575 409.797 -67.2551 410.775 -76.601 411.785C-214.356 426.903 -242.967 444.402 -317.993 443.792C-329.621 443.683 -341.291 443.251 -352.955 442.496C-401.999 439.497 -444.815 432.372 -496.469 421.371C-572.312 405.339 -636.596 385.441 -703.417 367.488C-725.023 361.685 -748.82 355.693 -775.254 349.832C-859.402 331.117 -984.243 309.611 -1151.29 298.011" stroke="#CDF564" stroke-opacity="0.2" stroke-width="3.5" stroke-miterlimit="10"/>
<path d="M2053.75 396.483C1925.92 381.493 1732.9 363.848 1525.92 386.182C1383.98 401.806 1281.58 431.921 1206.31 451.194C1180.77 457.748 1156.69 464.891 1132.83 471.598C998.968 509.135 909.26 543.567 845.133 566.644C783.469 588.841 744.73 600.55 682.307 587.311C641.388 578.58 603.614 562.557 578.502 548.137C541.836 527.021 535.966 512.879 524.105 496.789C518.183 488.87 513.245 481.239 502.683 473.794C463.528 446.175 401.084 430.96 298.389 421.338C192.086 411.392 56.1222 412.261 -53.4433 422.218C-63.6057 423.158 -73.328 424.141 -82.6102 425.167C-223.712 440.382 -252.563 456.224 -323.191 455.792C-334.721 455.71 -346.296 455.306 -357.867 454.584C-407.598 451.67 -450.423 444.661 -500.41 433.946C-572.475 418.6 -635.58 398.987 -705.687 380.265C-727.197 374.486 -750.771 368.543 -776.909 362.636C-860.201 343.731 -984.347 321.12 -1149.37 307.019" stroke="#CDF564" stroke-opacity="0.2" stroke-width="3.5" stroke-miterlimit="10"/>
<path d="M2055.7 389.155C1934.89 373.426 1738.36 352.769 1522.44 375.439C1375.6 391.1 1270.15 422.438 1196.3 442.297C1170.35 449.274 1145.98 456.831 1121.99 464.031C988.89 504.016 899.164 542.363 833.218 568.223C770.347 592.795 728.38 606.115 667.834 593.395C628.377 585.085 590.813 568.391 566.442 553.12C531.207 531.034 527.595 515.681 518.369 499.494C513.692 491.379 509.345 483.639 498.986 476.091C461.517 448.926 392.987 434.015 290.388 428.986C182.522 423.699 47.671 425.785 -59.5943 435.771C-69.6492 436.72 -79.2962 437.708 -88.5354 438.737C-233.009 453.946 -262.042 468.252 -328.273 467.999C-339.718 467.929 -351.207 467.548 -362.695 466.859C-413.111 464.014 -456.044 457.148 -504.206 446.764C-572.39 432.011 -634.378 412.661 -707.709 393.209C-729.124 387.47 -752.505 381.541 -778.283 375.592C-860.751 356.494 -984.202 332.778 -1147.17 316.212" stroke="#CDF564" stroke-opacity="0.2" stroke-width="3.5" stroke-miterlimit="10"/>
<path d="M2057.77 381.921C1943.95 365.466 1743.94 341.767 1519.08 364.789C1367.34 380.487 1259.05 413.046 1186.45 433.562C1159.98 440.988 1135.32 448.91 1111.29 456.676C978.891 499.154 889.379 541.332 821.387 569.975C757.183 596.88 711.931 611.707 653.066 599.525C615.103 591.639 577.747 574.291 554.086 558.166C520.278 535.144 519.022 518.586 512.234 502.304C508.739 493.988 505.048 486.161 494.86 478.475C459.465 451.792 384.903 440.537 282.412 436.736C173.034 432.631 39.2768 439.414 -65.6559 449.432C-75.4536 450.41 -85.2513 451.388 -94.3714 452.413C-242.131 467.775 -271.467 480.402 -333.299 480.311C-344.646 480.268 -356.04 479.916 -367.435 479.258C-418.538 476.498 -461.318 469.76 -507.941 459.619C-572.546 445.606 -633.172 426.722 -709.713 406.355C-731.066 400.653 -754.291 394.819 -779.801 388.739C-861.419 369.551 -984.202 344.643 -1144.99 325.622" stroke="#CDF564" stroke-opacity="0.2" stroke-width="3.5" stroke-miterlimit="10"/>
<path d="M2059.54 374.75C1952.75 357.506 1749.29 330.834 1515.42 354.186C1358.65 369.912 1247.61 403.782 1176.4 424.849C1149.64 432.756 1124.47 441.01 1100.41 449.242C968.526 493.967 879.269 540.313 809.589 571.716C744.206 601.063 695.928 617.417 638.553 605.708C602.083 598.247 564.872 580.239 541.951 563.28C509.547 539.22 510.704 521.561 506.357 505.151C504.142 496.625 501.039 488.722 491.054 480.917C457.506 454.7 376.829 445.554 274.529 444.529C163.615 443.344 30.9119 453.08 -71.6573 463.15C-81.4549 464.127 -91.0266 465.121 -100.137 466.014C-251.215 481.524 -280.76 492.53 -338.227 492.615C-349.563 492.562 -360.945 492.2 -372.328 491.531C-419.726 489.089 -466.81 482.634 -511.705 472.424C-572.563 459.079 -631.951 440.567 -711.74 419.367C-733.001 413.722 -755.996 407.854 -781.085 401.787C-898.402 373.747 -1019.49 351.353 -1142.7 334.908" stroke="#CDF564" stroke-opacity="0.2" stroke-width="3.5" stroke-miterlimit="10"/>
<path d="M2061.48 367.641C1961.68 349.638 1754.73 319.956 1511.92 343.661C1350.38 359.433 1236.37 394.498 1166.28 416.18C855.171 512.525 749.995 637.342 623.808 611.958C588.833 604.921 551.765 586.254 529.618 568.446C482.315 530.44 515.534 506.523 487.019 483.408C417.111 426.725 82.1255 460.686 -106.14 479.763C-289.703 498.372 -297.135 508.037 -377.01 504.036C-516.44 497.093 -586.759 463.092 -782.509 414.975C-898.903 386.463 -1018.71 362.837 -1140.67 344.34" stroke="#CDF564" stroke-opacity="0.2" stroke-width="3.5" stroke-miterlimit="10"/>
<path d="M2061.82 362.877C1959.41 343.669 1758.82 315.744 1526.69 338.45C1366.45 354.197 1257.12 390.013 1181.93 412.706C881.579 503.221 781.805 617.274 652.834 597.3C602.445 589.502 551.581 577.436 518.522 562.133C453.568 532.045 479.989 511.143 442.712 488.126C361.107 437.708 48.9257 465.623 -130.246 482.67C-304.788 499.375 -312.34 507.073 -396.528 499.418C-536.424 486.701 -603.687 456.248 -788.047 410.313C-903.071 381.665 -1021.96 358.475 -1143.13 341.052" stroke="#CDF564" stroke-opacity="0.2" stroke-width="3.5" stroke-miterlimit="10"/>
<path d="M2062.17 357.914C1891.44 325.224 1711.41 316.63 1541.47 333.056C1382.53 348.762 1278.07 385.376 1197.59 409.048C908.368 494.044 812.254 599.018 681.841 582.456C615.671 574.039 553.274 568.669 507.441 555.622C428.802 533.298 445.666 515.918 398.42 492.645C308.153 448.223 15.7391 470.379 -154.37 485.391C-319.602 500.214 -327.317 506.109 -416.065 494.616C-556.095 476.5 -620.589 449.056 -793.571 405.452C-907.192 376.683 -1025.13 353.933 -1145.45 337.573" stroke="#CDF564" stroke-opacity="0.2" stroke-width="3.5" stroke-miterlimit="10"/>
<path d="M2062.79 349.09C1897.1 316.511 1721.81 307.755 1556.49 323.799C1398.88 339.481 1299.27 376.891 1213.53 401.529C935.996 481.263 842.862 565.294 711.155 563.753C628.761 562.787 556.34 555.633 496.6 545.263C406.332 529.612 412.555 516.882 354.368 493.316C258.042 454.305 -17.2256 471.102 -178.188 484.253C-334.356 497.008 -341.902 501.443 -435.296 485.971C-575.419 462.761 -637.187 438.037 -798.854 396.743C-911.084 367.829 -1028.11 345.507 -1147.58 330.226" stroke="#CDF564" stroke-opacity="0.2" stroke-width="3.5" stroke-miterlimit="10"/>
<path d="M2063.75 335.651C1903.09 303.194 1732.55 294.293 1571.87 309.978C1415.56 325.652 1320.82 363.86 1229.79 389.445C964.129 464.114 872.51 539.599 740.76 540.482C642.881 541.127 556.108 546.578 486.116 530.342C389.806 508.001 386.236 506.676 310.674 489.425C221.309 446.908 -49.8374 467.311 -201.714 478.547C-348.729 489.359 -356.14 492.347 -454.234 472.742C-594.372 444.727 -653.424 422.389 -803.78 383.472C-914.625 354.418 -1030.76 332.528 -1149.37 318.333" stroke="#CDF564" stroke-opacity="0.2" stroke-width="3.5" stroke-miterlimit="10"/>
<path d="M2064.73 321.896C1909.12 289.549 1743.32 280.455 1587.22 295.705C1432.21 311.337 1342.36 350.396 1246.02 376.908C992.475 446.697 902.382 514.391 770.559 516.775C656.919 518.811 561.832 528.089 475.601 514.95C364.411 498.013 354.255 500.84 266.947 485.064C172.784 446.189 -82.395 463.208 -225.047 472.405C-362.909 481.272 -370.229 482.978 -472.979 459.075C-613.343 426.475 -669.465 406.27 -808.546 369.761C-918.008 340.567 -1033.27 319.106 -1150.99 306.001" stroke="#CDF564" stroke-opacity="0.2" stroke-width="3.5" stroke-miterlimit="10"/>
<path d="M2065.72 307.872C1915.2 275.68 1754.18 266.423 1602.71 281.255C1448.99 296.862 1364.12 336.775 1262.39 364.194C1021.05 429.243 932.457 489.546 800.08 492.861C671.017 496.094 566.633 498.854 465.226 499.399C340.009 500.077 322.415 494.861 223.362 480.543C124.246 445.199 -114.934 458.853 -248.657 466.056C-377.366 472.979 -384.602 473.503 -492 445.203C-632.312 408.221 -685.714 389.883 -813.426 355.839C-921.514 326.511 -1035.91 305.478 -1152.72 293.457" stroke="#CDF564" stroke-opacity="0.2" stroke-width="3.5" stroke-miterlimit="10"/>
<path d="M2066.73 293.668C1947.89 267.199 1786.12 249.632 1618.11 266.6C1465.61 282.01 1385.82 322.987 1278.71 351.278C1049.79 411.737 962.582 464.89 829.777 468.761C684.982 472.969 569.635 478.951 454.769 483.644C317.201 489.285 286.757 497.885 179.694 475.818C68.7628 452.957 -147.456 454.25 -272.092 459.521C-391.649 464.517 -398.869 463.904 -510.849 431.161C-651.571 389.916 -701.819 373.275 -818.455 341.724C-890.964 322.112 -1000.55 295.414 -1154.61 280.721" stroke="#CDF564" stroke-opacity="0.2" stroke-width="3.5" stroke-miterlimit="10"/>
<path d="M2067.76 279.214C1946.18 251.563 1790.9 235.729 1633.57 251.715C1482.37 267.083 1407.6 309.019 1295.05 338.129C1078.71 394.109 993.189 440.303 859.458 444.426C698.915 449.39 572.372 458.693 444.361 467.658C294.091 478.188 255.814 491.603 136.075 470.862C21.9449 451.038 -179.938 449.549 -295.542 452.751C-406.012 455.815 -413.426 454.284 -529.711 416.867C-670.852 371.475 -717.836 356.371 -823.306 327.388C-894.742 307.752 -1002.68 281.171 -1156.31 267.746" stroke="#CDF564" stroke-opacity="0.2" stroke-width="3.5" stroke-miterlimit="10"/>
<path d="M2068.8 264.594C1944.39 235.671 1795.7 221.66 1649.03 236.647C1499.14 251.973 1429.45 294.89 1311.4 324.797C1107.72 376.405 1023.8 415.699 889.184 419.911C712.745 425.435 574.963 438.191 433.966 451.489C270.737 466.872 224.879 484.753 92.4688 465.723C-25.0154 448.84 -212.401 444.583 -318.946 445.8C-420.138 446.98 -427.972 444.498 -548.528 402.393C-690.286 352.907 -733.805 339.237 -828.143 312.869C-898.539 293.19 -1004.77 266.663 -1158 254.605" stroke="#CDF564" stroke-opacity="0.2" stroke-width="3.5" stroke-miterlimit="10"/>
<path d="M2069.85 249.755C1942.83 219.693 1800.47 207.387 1664.52 221.377C1515.92 236.679 1451.38 280.631 1327.76 311.264C1136.87 358.592 1056.16 399.269 918.893 395.191C724.286 389.416 577.474 417.464 423.585 435.118C247.269 455.33 185.957 493.553 48.877 460.382C-65.6289 432.615 -244.729 439.524 -342.369 438.646C-434.344 437.886 -442.604 434.571 -567.364 387.731C-709.841 334.211 -749.69 321.839 -832.967 298.149C-902.288 278.412 -1006.87 251.985 -1159.68 241.246" stroke="#CDF564" stroke-opacity="0.2" stroke-width="3.5" stroke-miterlimit="10"/>
<path d="M2070.94 234.434C1941.18 203.157 1805.31 192.667 1680.01 205.523C1532.74 220.802 1473.41 265.86 1344.17 297.149C1166 340.275 1086.93 372.885 948.675 369.892C738.219 365.367 579.897 396.129 413.213 418.163C223.681 443.193 157.655 483.876 5.29401 454.457C-115.557 431.11 -277.232 433.75 -365.719 430.911C-448.512 428.259 -457.459 424.109 -586.126 372.473C-729.486 314.956 -765.531 303.81 -837.781 282.844C-905.995 263.035 -1008.93 236.742 -1161.35 227.32" stroke="#CDF564" stroke-opacity="0.2" stroke-width="3.5" stroke-miterlimit="10"/>
<path d="M2072.1 218.146C1939.64 185.656 1810.26 176.916 1695.59 188.887C1549.62 204.141 1495.59 250.38 1360.63 282.249C1195.53 321.25 1117.78 345.719 978.48 343.806C752.1 340.694 582.313 373.989 402.929 400.41C200.017 430.297 128.666 472.443 -38.1999 447.734C-165.082 428.945 -309.525 427.287 -389.045 422.39C-462.593 417.868 -472.324 412.892 -604.864 356.429C-749.175 294.945 -781.376 284.925 -842.507 266.74C-909.61 246.809 -1011.1 220.687 -1162.93 212.594" stroke="#CDF564" stroke-opacity="0.2" stroke-width="3.5" stroke-miterlimit="10"/>
<path d="M2073.27 201.578C1938.08 167.872 1815.19 160.916 1711.19 171.871C1566.52 187.117 1517.88 234.642 1377.12 266.97C1224.98 301.92 1148.76 318.213 1008.34 317.342C766.156 315.836 584.69 351.481 392.672 382.293C176.187 417.006 99.0111 459.893 -81.6678 440.647C-214.265 426.524 -341.826 420.491 -412.312 413.492C-476.585 407.135 -487.265 401.355 -623.543 340.006C-768.999 274.558 -796.862 265.549 -847.205 250.257C-913.129 230.159 -1012.88 204.259 -1164.49 197.489" stroke="#CDF564" stroke-opacity="0.2" stroke-width="3.5" stroke-miterlimit="10"/>
<path d="M2074.56 183.543C1936.63 148.638 1820.31 143.555 1726.9 153.405C1583.62 168.8 1540.43 217.599 1393.71 250.24C1254.6 281.195 1179.87 289.275 1038.28 289.426C780.4 289.7 587.107 327.501 382.648 362.734C152.847 402.293 68.6094 438.235 -124.903 432.119C-262.797 427.745 -373.863 412.256 -435.378 403.15C-490.476 394.984 -502.101 388.367 -642.023 322.157C-788.655 252.726 -812.217 244.792 -851.674 232.365C-916.313 211.99 -1014.63 186.411 -1165.81 180.959" stroke="#CDF564" stroke-opacity="0.2" stroke-width="3.5" stroke-miterlimit="10"/>
<path d="M2075.82 165.692C1935.19 129.575 1825.34 126.256 1742.57 135.105C1600.61 150.477 1563.14 200.921 1410.29 233.678C1284.24 260.691 1211.03 260.527 1068.24 261.68C794.686 263.887 589.479 303.704 372.321 343.307C128.913 387.724 36.7825 426.586 -168.44 423.722C-310.976 421.696 -406.274 404.265 -458.683 392.96C-504.639 383 -517.309 375.573 -660.74 304.444C-808.713 231.067 -827.737 224.075 -856.442 214.588C-919.556 193.736 -1016.65 168.712 -1167.43 164.577" stroke="#CDF564" stroke-opacity="0.2" stroke-width="3.5" stroke-miterlimit="10"/>
<path d="M2077.09 147.822C1933.82 110.513 1830.17 108.924 1758.27 116.804C1617.74 132.16 1586.07 184.522 1426.87 217.113C1313.87 240.25 1242.22 231.779 1098.16 233.929C809.089 238.247 591.814 279.968 362.156 323.905C105.141 373.163 4.85473 414.994 -211.817 415.35C-359.539 415.584 -438.657 396.356 -481.891 382.774C-518.78 371.182 -532.356 362.803 -679.359 286.734C-828.705 209.394 -843.026 203.305 -861.05 196.836C-921.983 174.95 -1018.5 151.005 -1168.9 148.187" stroke="#CDF564" stroke-opacity="0.2" stroke-width="3.5" stroke-miterlimit="10"/>
</g>
<defs>
<clipPath id="clip0_218_38">
<rect width="1920" height="746" fill="white"/>
</clipPath>
</defs>
</svg>
