<svg width="121" height="121" viewBox="0 0 121 121" fill="none" xmlns="http://www.w3.org/2000/svg">
<rect width="121" height="121" rx="5" fill="#F088D4"/>
<path d="M68.8864 50.25C68.6742 48.2652 67.7803 46.7197 66.2045 45.6136C64.6439 44.5076 62.6136 43.9545 60.1136 43.9545C58.3561 43.9545 56.8485 44.2197 55.5909 44.75C54.3333 45.2803 53.3712 46 52.7045 46.9091C52.0379 47.8182 51.697 48.8561 51.6818 50.0227C51.6818 50.9924 51.9015 51.8333 52.3409 52.5455C52.7955 53.2576 53.4091 53.8636 54.1818 54.3636C54.9545 54.8485 55.8106 55.2576 56.75 55.5909C57.6894 55.9242 58.6364 56.2045 59.5909 56.4318L63.9545 57.5227C65.7121 57.9318 67.4015 58.4848 69.0227 59.1818C70.6591 59.8788 72.1212 60.7576 73.4091 61.8182C74.7121 62.8788 75.7424 64.1591 76.5 65.6591C77.2576 67.1591 77.6364 68.9167 77.6364 70.9318C77.6364 73.6591 76.9394 76.0606 75.5455 78.1364C74.1515 80.197 72.1364 81.8106 69.5 82.9773C66.8788 84.1288 63.7045 84.7045 59.9773 84.7045C56.3561 84.7045 53.2121 84.1439 50.5455 83.0227C47.8939 81.9015 45.8182 80.2652 44.3182 78.1136C42.8333 75.9621 42.0303 73.3409 41.9091 70.25H50.2045C50.3258 71.8712 50.8258 73.2197 51.7045 74.2955C52.5833 75.3712 53.7273 76.1742 55.1364 76.7045C56.5606 77.2348 58.1515 77.5 59.9091 77.5C61.7424 77.5 63.3485 77.2273 64.7273 76.6818C66.1212 76.1212 67.2121 75.3485 68 74.3636C68.7879 73.3636 69.1894 72.197 69.2045 70.8636C69.1894 69.6515 68.8333 68.6515 68.1364 67.8636C67.4394 67.0606 66.4621 66.3939 65.2045 65.8636C63.9621 65.3182 62.5076 64.8333 60.8409 64.4091L55.5455 63.0455C51.7121 62.0606 48.6818 60.5682 46.4545 58.5682C44.2424 56.553 43.1364 53.8788 43.1364 50.5455C43.1364 47.803 43.8788 45.4015 45.3636 43.3409C46.8636 41.2803 48.9015 39.6818 51.4773 38.5455C54.053 37.3939 56.9697 36.8182 60.2273 36.8182C63.5303 36.8182 66.4242 37.3939 68.9091 38.5455C71.4091 39.6818 73.3712 41.2652 74.7955 43.2955C76.2197 45.3106 76.9545 47.6288 77 50.25H68.8864Z" fill="#101A30"/>
</svg>
